<svg width="542" height="132" viewBox="0 0 542 132" fill="none" xmlns="http://www.w3.org/2000/svg">
<path d="M108.037 61.6288L71.2344 24.6952V0H96.2779L132.863 36.715V61.6288H108.037Z" fill="#48B1A2"/>
<path d="M178.42 132L141.617 95.0663V70.3711H166.661L203.246 107.086V132H178.42Z" fill="#48B1A2"/>
<path d="M36.8031 132L0 95.0663V70.3711H25.0435L61.6288 107.086V132H36.8031Z" fill="white"/>
<path d="M166.439 61.6288L203.242 24.6952V0H178.199L141.614 36.715V61.6288H166.439Z" fill="#48B1A2"/>
<path d="M24.8376 61.6288L61.6406 24.6952V0H36.5971L0.0118179 36.715V61.6288H24.8376Z" fill="white"/>
<path d="M95.546 132L132.871 95.0663V70.3711H107.472L70.3681 107.086V132H95.546Z" fill="#48B1A2"/>
<path d="M256.974 73.116C249.39 73.116 242.958 70.632 237.678 65.664C232.398 60.696 229.758 54.216 229.758 46.224C229.758 38.208 232.398 31.728 237.678 26.784C242.982 21.816 249.414 19.332 256.974 19.332C264.51 19.332 270.93 21.852 276.234 26.892C281.538 31.908 284.19 38.352 284.19 46.224C284.19 54.072 281.55 60.516 276.27 65.556C270.99 70.596 264.558 73.116 256.974 73.116ZM256.974 57.384C260.094 57.384 262.698 56.34 264.786 54.252C266.874 52.14 267.918 49.464 267.918 46.224C267.918 42.936 266.862 40.26 264.75 38.196C262.662 36.108 260.07 35.064 256.974 35.064C253.878 35.064 251.274 36.108 249.162 38.196C247.074 40.26 246.03 42.936 246.03 46.224C246.03 49.488 247.062 52.164 249.126 54.252C251.214 56.34 253.83 57.384 256.974 57.384ZM319.049 72L304.037 48.42H301.913L283.481 20.448H301.589L315.449 42.66H318.113L337.913 72H319.049ZM282.941 72L302.129 42.732L304.937 42.696L318.725 20.448H335.537L317.465 48.456H314.801L299.825 72H282.941ZM363.82 73.116C355.828 73.116 349.252 70.596 344.092 65.556C338.932 60.516 336.352 54.072 336.352 46.224C336.352 38.352 338.944 31.908 344.128 26.892C349.312 21.852 355.876 19.332 363.82 19.332C366.172 19.332 368.452 19.608 370.66 20.16C372.868 20.688 374.92 21.456 376.816 22.464C378.736 23.472 380.368 24.564 381.712 25.74C383.056 26.916 383.728 27.504 383.728 27.504L373.216 39.42C373.216 39.42 372.904 39.096 372.28 38.448C371.656 37.776 370.924 37.188 370.084 36.684C369.244 36.156 368.32 35.748 367.312 35.46C366.328 35.172 365.26 35.028 364.108 35.028C360.94 35.028 358.3 36.06 356.188 38.124C354.1 40.188 353.056 42.888 353.056 46.224C353.056 49.512 354.088 52.2 356.152 54.288C358.24 56.352 360.88 57.384 364.072 57.384C365.248 57.384 366.364 57.228 367.42 56.916C368.5 56.604 369.484 56.16 370.372 55.584C371.284 55.008 372.052 54.372 372.676 53.676C373.3 52.98 373.612 52.632 373.612 52.632L384.484 63.792C384.484 63.792 383.836 64.476 382.54 65.844C381.268 67.188 379.636 68.436 377.644 69.588C375.676 70.716 373.516 71.58 371.164 72.18C368.836 72.804 366.388 73.116 363.82 73.116ZM411.732 73.116C404.148 73.116 397.716 70.632 392.436 65.664C387.156 60.696 384.516 54.216 384.516 46.224C384.516 38.208 387.156 31.728 392.436 26.784C397.74 21.816 404.172 19.332 411.732 19.332C419.268 19.332 425.688 21.852 430.992 26.892C436.296 31.908 438.948 38.352 438.948 46.224C438.948 54.072 436.308 60.516 431.028 65.556C425.748 70.596 419.316 73.116 411.732 73.116ZM411.732 57.384C414.852 57.384 417.456 56.34 419.544 54.252C421.632 52.14 422.676 49.464 422.676 46.224C422.676 42.936 421.62 40.26 419.508 38.196C417.42 36.108 414.828 35.064 411.732 35.064C408.636 35.064 406.032 36.108 403.92 38.196C401.832 40.26 400.788 42.936 400.788 46.224C400.788 49.488 401.82 52.164 403.884 54.252C405.972 56.34 408.588 57.384 411.732 57.384ZM444.985 72V20.448H465.937C473.809 20.448 480.205 22.824 485.125 27.576C490.045 32.304 492.505 38.52 492.505 46.224C492.505 53.976 490.033 60.216 485.089 64.944C480.169 69.648 473.785 72 465.937 72H444.985ZM461.437 57.96H464.929C468.169 58.008 470.773 57.024 472.741 55.008C474.733 52.968 475.729 50.124 475.729 46.476C475.729 42.852 474.769 40.02 472.849 37.98C470.929 35.94 468.289 34.92 464.929 34.92H461.437V57.96ZM498.563 72V20.448H536.687V34.56H514.763V58.032H536.939V72H498.563ZM509.003 52.308V40.212H534.527V52.308H509.003Z" fill="white"/>
<path d="M242.385 111.45C241.145 111.45 240.05 111.245 239.1 110.835C238.15 110.415 237.38 109.845 236.79 109.125C236.2 108.395 235.755 107.64 235.455 106.86C235.165 106.07 235.02 105.675 235.02 105.675L236.91 104.91C236.91 104.91 237.04 105.25 237.3 105.93C237.57 106.6 237.935 107.22 238.395 107.79C238.855 108.36 239.43 108.8 240.12 109.11C240.81 109.42 241.61 109.575 242.52 109.575C243.94 109.575 245.08 109.195 245.94 108.435C246.81 107.665 247.245 106.66 247.245 105.42C247.245 104.38 246.895 103.5 246.195 102.78C245.495 102.06 244.115 101.345 242.055 100.635C239.685 99.825 238.06 98.945 237.18 97.995C236.31 97.035 235.875 95.865 235.875 94.485C235.875 92.955 236.465 91.67 237.645 90.63C238.825 89.59 240.35 89.07 242.22 89.07C243.27 89.07 244.195 89.225 244.995 89.535C245.805 89.845 246.495 90.29 247.065 90.87C247.635 91.45 248.05 92.02 248.31 92.58C248.57 93.14 248.7 93.42 248.7 93.42L246.855 94.2C246.855 94.2 246.76 93.995 246.57 93.585C246.38 93.165 246.075 92.735 245.655 92.295C245.245 91.855 244.75 91.525 244.17 91.305C243.6 91.085 242.935 90.975 242.175 90.975C240.905 90.975 239.875 91.295 239.085 91.935C238.295 92.565 237.9 93.39 237.9 94.41C237.9 95.32 238.205 96.095 238.815 96.735C239.435 97.365 240.89 98.075 243.18 98.865C245.27 99.595 246.8 100.475 247.77 101.505C248.74 102.525 249.225 103.81 249.225 105.36C249.225 107.25 248.58 108.74 247.29 109.83C246.01 110.91 244.375 111.45 242.385 111.45ZM259.316 111.45C257.066 111.45 255.211 110.685 253.751 109.155C252.301 107.625 251.576 105.695 251.576 103.365C251.576 101.005 252.311 99.07 253.781 97.56C255.251 96.05 257.101 95.295 259.331 95.295C261.541 95.295 263.381 96.06 264.851 97.59C266.321 99.12 267.056 101.045 267.056 103.365C267.056 105.685 266.331 107.615 264.881 109.155C263.431 110.685 261.576 111.45 259.316 111.45ZM259.316 109.635C260.956 109.635 262.321 109.055 263.411 107.895C264.511 106.725 265.061 105.215 265.061 103.365C265.061 101.505 264.506 100 263.396 98.85C262.296 97.69 260.936 97.11 259.316 97.11C257.696 97.11 256.331 97.685 255.221 98.835C254.121 99.985 253.571 101.495 253.571 103.365C253.571 105.215 254.116 106.725 255.206 107.895C256.296 109.055 257.666 109.635 259.316 109.635ZM271.396 111V93.615C271.396 92.245 271.806 91.15 272.626 90.33C273.456 89.5 274.536 89.085 275.866 89.085C276.266 89.085 276.616 89.11 276.916 89.16C277.216 89.21 277.491 89.27 277.741 89.34C278.001 89.41 278.131 89.445 278.131 89.445V91.305C278.131 91.305 277.996 91.27 277.726 91.2C277.466 91.12 277.191 91.055 276.901 91.005C276.611 90.955 276.296 90.93 275.956 90.93C275.176 90.93 274.551 91.17 274.081 91.65C273.611 92.13 273.376 92.825 273.376 93.735V96.18V96.645V111H271.396ZM284.281 111.45C283.111 111.45 282.166 111.095 281.446 110.385C280.736 109.675 280.381 108.685 280.381 107.415V91.38H282.361V106.965C282.361 107.865 282.546 108.535 282.916 108.975C283.296 109.405 283.861 109.62 284.611 109.62C284.831 109.62 285.051 109.595 285.271 109.545C285.501 109.495 285.761 109.42 286.051 109.32C286.341 109.22 286.486 109.17 286.486 109.17V111.015C286.486 111.015 286.356 111.06 286.096 111.15C285.846 111.24 285.576 111.31 285.286 111.36C284.996 111.42 284.661 111.45 284.281 111.45ZM268.396 97.545V95.745H272.356V97.545H268.396ZM281.431 97.545V95.745H286.561V97.545H281.431ZM272.326 97.545V95.745H281.581V97.545H272.326ZM292.848 111.015L288.003 95.745H290.058L293.553 107.265L293.898 108.45H293.973L294.318 107.34L297.948 95.745H300.003L303.648 107.28L304.008 108.42H304.083L304.413 107.295L307.893 95.745H309.888L305.043 111.015H303.018L299.223 99.15L298.968 98.19H298.893L298.608 99.15L294.873 111.015H292.848ZM316.585 111.45C314.925 111.45 313.57 110.985 312.52 110.055C311.47 109.115 310.945 107.89 310.945 106.38C310.945 104.82 311.53 103.585 312.7 102.675C313.88 101.765 315.4 101.31 317.26 101.31C318.18 101.31 319.07 101.425 319.93 101.655C320.79 101.885 321.46 102.18 321.94 102.54V101.175C321.94 99.925 321.52 98.93 320.68 98.19C319.84 97.45 318.78 97.08 317.5 97.08C316.75 97.08 316.115 97.185 315.595 97.395C315.085 97.595 314.665 97.83 314.335 98.1C314.015 98.36 313.72 98.64 313.45 98.94C313.19 99.23 313.06 99.375 313.06 99.375L311.545 98.265C311.545 98.265 311.71 98.075 312.04 97.695C312.38 97.315 312.785 96.945 313.255 96.585C313.735 96.215 314.305 95.91 314.965 95.67C315.625 95.42 316.475 95.295 317.515 95.295C319.435 95.295 320.97 95.82 322.12 96.87C323.27 97.91 323.845 99.345 323.845 101.175V111H321.94V107.085L322.645 108.24H321.865C321.425 109.17 320.73 109.94 319.78 110.55C318.83 111.15 317.765 111.45 316.585 111.45ZM316.765 109.665C318.225 109.665 319.45 109.15 320.44 108.12C321.44 107.09 321.94 105.84 321.94 104.37V104.295C321.44 103.865 320.795 103.535 320.005 103.305C319.215 103.065 318.39 102.945 317.53 102.945C316.14 102.945 315.035 103.24 314.215 103.83C313.395 104.41 312.985 105.27 312.985 106.41C312.985 107.39 313.34 108.18 314.05 108.78C314.76 109.37 315.665 109.665 316.765 109.665ZM327.665 111V95.745H329.555V98.7L329.255 98.445H329.63C329.94 97.495 330.515 96.735 331.355 96.165C332.205 95.585 333.105 95.295 334.055 95.295C334.325 95.295 334.595 95.315 334.865 95.355C335.145 95.395 335.385 95.445 335.585 95.505C335.795 95.565 335.9 95.595 335.9 95.595V97.695C335.9 97.695 335.765 97.655 335.495 97.575C335.225 97.495 334.94 97.435 334.64 97.395C334.35 97.345 334.09 97.32 333.86 97.32C332.7 97.32 331.705 97.77 330.875 98.67C330.055 99.57 329.645 100.74 329.645 102.18V111H327.665ZM344.447 111.45C342.267 111.45 340.472 110.7 339.062 109.2C337.652 107.69 336.947 105.74 336.947 103.35C336.947 101.02 337.637 99.095 339.017 97.575C340.407 96.055 342.177 95.295 344.327 95.295C346.477 95.295 348.197 95.955 349.487 97.275C350.787 98.585 351.437 100.26 351.437 102.3V103.605H338.117V101.94H349.367C349.317 100.52 348.837 99.36 347.927 98.46C347.027 97.56 345.827 97.11 344.327 97.11C342.727 97.11 341.427 97.68 340.427 98.82C339.437 99.96 338.942 101.47 338.942 103.35C338.942 105.27 339.477 106.8 340.547 107.94C341.627 109.07 342.957 109.635 344.537 109.635C345.407 109.635 346.132 109.5 346.712 109.23C347.292 108.96 347.787 108.63 348.197 108.24C348.607 107.84 349.032 107.295 349.472 106.605L351.152 107.43C350.682 108.36 350.147 109.095 349.547 109.635C348.947 110.175 348.242 110.615 347.432 110.955C346.632 111.285 345.637 111.45 344.447 111.45ZM367.746 111.45C366.506 111.45 365.411 111.245 364.461 110.835C363.511 110.415 362.741 109.845 362.151 109.125C361.561 108.395 361.116 107.64 360.816 106.86C360.526 106.07 360.381 105.675 360.381 105.675L362.271 104.91C362.271 104.91 362.401 105.25 362.661 105.93C362.931 106.6 363.296 107.22 363.756 107.79C364.216 108.36 364.791 108.8 365.481 109.11C366.171 109.42 366.971 109.575 367.881 109.575C369.301 109.575 370.441 109.195 371.301 108.435C372.171 107.665 372.606 106.66 372.606 105.42C372.606 104.38 372.256 103.5 371.556 102.78C370.856 102.06 369.476 101.345 367.416 100.635C365.046 99.825 363.421 98.945 362.541 97.995C361.671 97.035 361.236 95.865 361.236 94.485C361.236 92.955 361.826 91.67 363.006 90.63C364.186 89.59 365.711 89.07 367.581 89.07C368.631 89.07 369.556 89.225 370.356 89.535C371.166 89.845 371.856 90.29 372.426 90.87C372.996 91.45 373.411 92.02 373.671 92.58C373.931 93.14 374.061 93.42 374.061 93.42L372.216 94.2C372.216 94.2 372.121 93.995 371.931 93.585C371.741 93.165 371.436 92.735 371.016 92.295C370.606 91.855 370.111 91.525 369.531 91.305C368.961 91.085 368.296 90.975 367.536 90.975C366.266 90.975 365.236 91.295 364.446 91.935C363.656 92.565 363.261 93.39 363.261 94.41C363.261 95.32 363.566 96.095 364.176 96.735C364.796 97.365 366.251 98.075 368.541 98.865C370.631 99.595 372.161 100.475 373.131 101.505C374.101 102.525 374.586 103.81 374.586 105.36C374.586 107.25 373.941 108.74 372.651 109.83C371.371 110.91 369.736 111.45 367.746 111.45ZM384.677 111.45C382.427 111.45 380.572 110.685 379.112 109.155C377.662 107.625 376.937 105.695 376.937 103.365C376.937 101.005 377.672 99.07 379.142 97.56C380.612 96.05 382.462 95.295 384.692 95.295C386.902 95.295 388.742 96.06 390.212 97.59C391.682 99.12 392.417 101.045 392.417 103.365C392.417 105.685 391.692 107.615 390.242 109.155C388.792 110.685 386.937 111.45 384.677 111.45ZM384.677 109.635C386.317 109.635 387.682 109.055 388.772 107.895C389.872 106.725 390.422 105.215 390.422 103.365C390.422 101.505 389.867 100 388.757 98.85C387.657 97.69 386.297 97.11 384.677 97.11C383.057 97.11 381.692 97.685 380.582 98.835C379.482 99.985 378.932 101.495 378.932 103.365C378.932 105.215 379.477 106.725 380.567 107.895C381.657 109.055 383.027 109.635 384.677 109.635ZM395.575 111V89.52H397.555V111H395.575ZM406.937 111.45C405.167 111.45 403.797 110.93 402.827 109.89C401.867 108.84 401.387 107.355 401.387 105.435V95.745H403.382V105.105C403.382 106.575 403.722 107.7 404.402 108.48C405.082 109.25 406.067 109.635 407.357 109.635C408.737 109.635 409.872 109.13 410.762 108.12C411.662 107.1 412.112 105.84 412.112 104.34V95.745H414.092V111H412.202V107.325L413.102 108.225H412.127C411.737 109.155 411.067 109.925 410.117 110.535C409.177 111.145 408.117 111.45 406.937 111.45ZM423.565 111.45C422.395 111.45 421.45 111.095 420.73 110.385C420.02 109.675 419.665 108.685 419.665 107.415V91.38H421.645V106.965C421.645 107.865 421.83 108.535 422.2 108.975C422.58 109.405 423.145 109.62 423.895 109.62C424.115 109.62 424.335 109.595 424.555 109.545C424.785 109.495 425.045 109.42 425.335 109.32C425.625 109.22 425.77 109.17 425.77 109.17V111.015C425.77 111.015 425.64 111.06 425.38 111.15C425.13 111.24 424.86 111.31 424.57 111.36C424.28 111.42 423.945 111.45 423.565 111.45ZM416.86 97.545V95.745H425.71V97.545H416.86ZM428.993 111V95.745H430.988V111H428.993ZM429.983 92.475C429.583 92.475 429.238 92.33 428.948 92.04C428.658 91.74 428.513 91.39 428.513 90.99C428.513 90.57 428.658 90.22 428.948 89.94C429.238 89.66 429.588 89.52 429.998 89.52C430.418 89.52 430.763 89.66 431.033 89.94C431.313 90.22 431.453 90.57 431.453 90.99C431.453 91.39 431.313 91.74 431.033 92.04C430.763 92.33 430.413 92.475 429.983 92.475ZM442.04 111.45C439.79 111.45 437.935 110.685 436.475 109.155C435.025 107.625 434.3 105.695 434.3 103.365C434.3 101.005 435.035 99.07 436.505 97.56C437.975 96.05 439.825 95.295 442.055 95.295C444.265 95.295 446.105 96.06 447.575 97.59C449.045 99.12 449.78 101.045 449.78 103.365C449.78 105.685 449.055 107.615 447.605 109.155C446.155 110.685 444.3 111.45 442.04 111.45ZM442.04 109.635C443.68 109.635 445.045 109.055 446.135 107.895C447.235 106.725 447.785 105.215 447.785 103.365C447.785 101.505 447.23 100 446.12 98.85C445.02 97.69 443.66 97.11 442.04 97.11C440.42 97.11 439.055 97.685 437.945 98.835C436.845 99.985 436.295 101.495 436.295 103.365C436.295 105.215 436.84 106.725 437.93 107.895C439.02 109.055 440.39 109.635 442.04 109.635ZM452.938 111V95.745H454.828V98.925L454.513 98.58H454.903C455.303 97.62 455.983 96.835 456.943 96.225C457.903 95.605 458.968 95.295 460.138 95.295C461.898 95.295 463.258 95.815 464.218 96.855C465.188 97.885 465.673 99.33 465.673 101.19V111H463.678V101.505C463.678 100.055 463.338 98.96 462.658 98.22C461.978 97.48 460.973 97.11 459.643 97.11C458.263 97.11 457.128 97.62 456.238 98.64C455.358 99.66 454.918 100.905 454.918 102.375V111H452.938ZM474.651 111.45C473.651 111.45 472.776 111.32 472.026 111.06C471.286 110.8 470.631 110.415 470.061 109.905C469.501 109.385 469.076 108.835 468.786 108.255C468.496 107.665 468.351 107.37 468.351 107.37L470.136 106.56C470.136 106.56 470.261 106.795 470.511 107.265C470.761 107.725 471.086 108.145 471.486 108.525C471.886 108.905 472.346 109.195 472.866 109.395C473.396 109.595 474.036 109.695 474.786 109.695C475.916 109.695 476.811 109.45 477.471 108.96C478.141 108.47 478.476 107.805 478.476 106.965C478.476 106.245 478.201 105.675 477.651 105.255C477.101 104.835 476.021 104.435 474.411 104.055C472.521 103.615 471.136 103.035 470.256 102.315C469.386 101.585 468.951 100.635 468.951 99.465C468.951 98.265 469.476 97.27 470.526 96.48C471.576 95.69 472.886 95.295 474.456 95.295C475.316 95.295 476.076 95.4 476.736 95.61C477.396 95.81 477.991 96.125 478.521 96.555C479.051 96.975 479.441 97.415 479.691 97.875C479.951 98.325 480.081 98.55 480.081 98.55L478.371 99.36C478.371 99.36 478.256 99.185 478.026 98.835C477.806 98.485 477.526 98.175 477.186 97.905C476.846 97.625 476.446 97.42 475.986 97.29C475.526 97.15 475.001 97.08 474.411 97.08C473.371 97.08 472.536 97.31 471.906 97.77C471.276 98.22 470.961 98.76 470.961 99.39C470.961 100.06 471.221 100.605 471.741 101.025C472.271 101.445 473.351 101.85 474.981 102.24C477.021 102.72 478.451 103.33 479.271 104.07C480.091 104.81 480.501 105.73 480.501 106.83C480.501 108.21 479.961 109.325 478.881 110.175C477.801 111.025 476.391 111.45 474.651 111.45ZM490.654 111V89.52H492.649V109.095H502.279V111H490.654ZM505.595 111V89.52H507.59V109.095H517.22V111H505.595ZM520.537 111V89.52H527.332C529.432 89.52 531.087 90.15 532.297 91.41C533.507 92.66 534.112 94.27 534.112 96.24C534.112 98.21 533.487 99.79 532.237 100.98C530.987 102.17 529.317 102.765 527.227 102.765H521.602V100.92H527.272C528.752 100.92 529.922 100.49 530.782 99.63C531.652 98.76 532.087 97.63 532.087 96.24C532.087 94.85 531.672 93.7 530.842 92.79C530.022 91.88 528.862 91.425 527.362 91.425H522.532V111H520.537Z" fill="#48B1A2"/>
</svg>
