<svg width="358" height="232" viewBox="0 0 358 232" fill="none" xmlns="http://www.w3.org/2000/svg">
<path d="M189.886 108.318L125.202 43.4041V0H169.217L233.519 64.53V108.318H189.886Z" fill="#48B1A2"/>
<path d="M313.585 232L248.901 167.086V123.682H292.917L357.218 188.212V232H313.585Z" fill="#48B1A2"/>
<path d="M64.6842 232L0 167.086V123.682H44.0159L108.317 188.212V232H64.6842Z" fill="white"/>
<path d="M292.534 108.318L357.219 43.4041V0H313.203L248.901 64.53V108.318H292.534Z" fill="#48B1A2"/>
<path d="M43.6416 108.318L108.326 43.4041V0H64.3099L0.00843811 64.53V108.318H43.6416Z" fill="white"/>
<path d="M167.934 232L233.536 167.086V123.682H188.895L123.682 188.212V232H167.934Z" fill="#48B1A2"/>
</svg>
